<?xml version="1.0" encoding="UTF-8"?>
<svg version="1.1" xmlns="http://www.w3.org/2000/svg" width="304" height="304">
<path d="M0 0 C9.58625713 8.18481446 17.97646345 17.15708891 25.19213867 27.48486328 C28.30561015 31.9225499 31.7413067 35.60372048 35.66992188 39.34960938 C53.98462165 57.98172163 66.00866282 85.44597135 66.92382812 111.64257812 C67.00117187 113.48142578 67.00117187 113.48142578 67.08007812 115.35742188 C68.03718834 148.67903691 55.82643297 178.90645009 33.28710938 203.27539062 C11.1587918 225.44028393 -19.34764997 237.60710399 -50.51367188 237.89257812 C-69.91478335 237.73666653 -87.82556409 233.58655088 -105.07617188 224.64257812 C-106.20539063 224.06894531 -107.33460937 223.4953125 -108.49804688 222.90429688 C-119.12895135 217.19904481 -128.29620622 209.79558683 -136.57617188 201.01757812 C-140.23419071 197.20132438 -144.56524747 194.3567639 -148.87719727 191.33789062 C-175.97335914 172.30420604 -190.82991493 142.33741114 -196.47851562 110.36523438 C-199.54670096 88.46763766 -195.42493585 65.91814777 -187.07617188 45.64257812 C-185.75617188 45.64257812 -184.43617188 45.64257812 -183.07617188 45.64257812 C-183.43679106 50.96171111 -184.28080776 55.57410686 -185.95117188 60.64257812 C-195.1833227 89.68678985 -192.17240362 120.76322309 -178.29345703 147.84521484 C-171.96407871 159.70585589 -163.46571324 173.04955055 -152.07617188 180.64257812 C-152.5840625 179.70800781 -153.09195313 178.7734375 -153.61523438 177.81054688 C-169.13275859 148.50429136 -172.70909416 115.81375023 -163.17749023 83.92651367 C-153.50676244 53.51654443 -132.07090369 29.19963397 -103.95922852 14.41040039 C-76.05713043 0.48614937 -42.92209701 -1.66914357 -13.38696289 8.05419922 C-4.93881668 10.95542393 3.10256931 14.30273329 10.92382812 18.64257812 C-9.21466005 -3.00315657 -37.24717872 -19.03572827 -67.3894043 -20.46728516 C-78.08006806 -20.71505787 -88.58644852 -20.66110421 -99.07617188 -18.35742188 C-100.41421875 -18.06544922 -100.41421875 -18.06544922 -101.77929688 -17.76757812 C-118.41508708 -13.65727324 -133.71995247 -5.79830872 -147.51757812 4.23632812 C-150.07617188 5.64257812 -150.07617188 5.64257812 -152.41601562 5.36132812 C-152.96386719 5.12414062 -153.51171875 4.88695313 -154.07617188 4.64257812 C-153.69580214 2.2213971 -153.38417529 0.93986264 -151.59594727 -0.78613281 C-150.96164795 -1.21700195 -150.32734863 -1.64787109 -149.67382812 -2.09179688 C-148.95735107 -2.57970703 -148.24087402 -3.06761719 -147.50268555 -3.5703125 C-146.72256104 -4.07755859 -145.94243652 -4.58480469 -145.13867188 -5.10742188 C-144.33469971 -5.63529297 -143.53072754 -6.16316406 -142.70239258 -6.70703125 C-98.83899192 -34.73999958 -40.71218879 -33.2405045 0 0 Z " fill="#A4D5A6" transform="translate(228.076171875,57.357421875)"/>
<path d="M0 0 C18.60575277 15.89809395 30.99569842 34.33696377 38.80761719 57.46386719 C39.0939502 58.31078125 39.3802832 59.15769531 39.67529297 60.03027344 C43.14479568 70.77884708 44.28421957 81.05552046 44.24829102 92.32910156 C44.24514228 94.38498637 44.26864203 96.43941004 44.29394531 98.49511719 C44.35970463 112.22486198 41.67408156 124.72666482 36.93261719 137.65136719 C35.61261719 137.65136719 34.29261719 137.65136719 32.93261719 137.65136719 C33.55572967 132.62752282 34.57772495 127.91792666 35.93261719 123.02636719 C43.38969599 95.99445651 39.72238378 66.47169048 26.93261719 41.65136719 C26.62404785 41.03632324 26.31547852 40.4212793 25.99755859 39.78759766 C12.95274271 14.30703631 -12.26472306 -5.37852148 -39.04638672 -14.70361328 C-58.31418029 -20.85310719 -79.21175224 -22.70919256 -99.06738281 -18.34863281 C-99.95941406 -18.15398438 -100.85144531 -17.95933594 -101.77050781 -17.75878906 C-118.40629802 -13.64848417 -133.7111634 -5.78951966 -147.50878906 4.24511719 C-150.06738281 5.65136719 -150.06738281 5.65136719 -152.40722656 5.37011719 C-152.95507812 5.13292969 -153.50292969 4.89574219 -154.06738281 4.65136719 C-153.68701308 2.23018616 -153.37538623 0.9486517 -151.5871582 -0.77734375 C-150.63570923 -1.42364746 -150.63570923 -1.42364746 -149.66503906 -2.08300781 C-148.94856201 -2.57091797 -148.23208496 -3.05882813 -147.49389648 -3.56152344 C-146.71377197 -4.06876953 -145.93364746 -4.57601562 -145.12988281 -5.09863281 C-144.32591064 -5.62650391 -143.52193848 -6.154375 -142.69360352 -6.69824219 C-98.83674177 -34.72703151 -40.70994503 -33.23477515 0 0 Z " fill="#1A1C40" transform="translate(228.0673828125,57.3486328125)"/>
<path d="M0 0 C1.32 0 2.64 0 4 0 C3.63938081 5.31913299 2.79536411 9.93152874 1.125 15 C-8.10715083 44.04421173 -5.09623174 75.12064497 8.78271484 102.20263672 C24.36701443 131.40610249 49.37035394 151.03264027 80.78515625 160.921875 C110.33543555 168.98368194 141.55148559 164.48638107 168.08325195 149.77807617 C171.90059995 147.58774337 175.58827368 145.28790642 179.1953125 142.765625 C182 141 182 141 185 141 C184.88671875 142.73046875 184.88671875 142.73046875 184 145 C181.95475592 146.62002496 180.02628744 147.96513097 177.8125 149.3125 C177.18537109 149.70276367 176.55824219 150.09302734 175.91210938 150.49511719 C148.03495926 167.55281394 114.9112723 174.66793067 82.625 166.9375 C73.66558188 164.56935293 65.27559997 161.13246639 57 157 C56.35305176 156.68659668 55.70610352 156.37319336 55.03955078 156.05029297 C46.05736658 151.67811867 38.52804022 146.64314282 31 140 C29.91947265 139.1422865 28.83665852 138.28743239 27.75 137.4375 C6.44428386 118.55288797 -7.44224336 88.67515133 -9.87109375 60.5625 C-10.9332937 39.44725251 -8.08309668 19.63037764 0 0 Z " fill="#1B1E41" transform="translate(41,103)"/>
<path d="M0 0 C0.80183716 0.41908379 0.80183716 0.41908379 1.61987305 0.84663391 C-0.0468398 5.15664111 -3.29868478 8.07540304 -6.49462891 11.28340149 C-7.12087158 11.91957397 -7.74711426 12.55574646 -8.39233398 13.2111969 C-10.46210001 15.31013394 -12.53954546 17.40123963 -14.6184082 19.49116516 C-16.06089327 20.94515434 -17.50337264 22.39914917 -18.94584656 23.85314941 C-21.96913 26.89742893 -24.99703378 29.93703526 -28.02734375 32.97431946 C-31.9149571 36.8729303 -35.78365996 40.78975705 -39.64825153 44.71117115 C-42.6193069 47.71940336 -45.60362474 50.71420398 -48.59178734 53.7054348 C-50.02453049 55.14424387 -51.45225475 56.58806842 -52.87487221 58.03689003 C-54.86190727 60.05790699 -56.86686439 62.05927977 -58.87744141 64.05683899 C-59.46412094 64.66194809 -60.05080048 65.26705719 -60.65525818 65.89050293 C-64.68324584 69.83705165 -64.68324584 69.83705165 -68.07894897 69.88374329 C-70.42834916 68.82490082 -71.88063147 67.8526023 -73.70166016 66.04267883 C-74.30190506 65.45504257 -74.90214996 64.86740631 -75.52058411 64.26196289 C-76.15099106 63.62345901 -76.78139801 62.98495514 -77.4309082 62.32710266 C-78.08971481 61.67212296 -78.74852142 61.01714325 -79.42729187 60.34231567 C-80.81468681 58.95763859 -82.19705959 57.56791365 -83.57470703 56.17353821 C-85.68854254 54.03825976 -87.82289198 51.92517971 -89.96020508 49.81343079 C-91.30589084 48.4651024 -92.65033559 47.11553404 -93.9934082 45.76460266 C-94.63393631 45.13217148 -95.27446442 44.4997403 -95.93440247 43.84814453 C-96.51888657 43.25105179 -97.10337067 42.65395905 -97.70556641 42.03877258 C-98.22343216 41.51772446 -98.74129791 40.99667633 -99.27485657 40.45983887 C-100.38012695 38.84663391 -100.38012695 38.84663391 -100.38012695 34.84663391 C-97.22783609 35.42498595 -95.59927157 36.25631914 -93.35571289 38.5304718 C-92.51529449 39.37123009 -92.51529449 39.37123009 -91.65789795 40.22897339 C-91.06607727 40.83627792 -90.47425659 41.44358246 -89.86450195 42.06929016 C-89.24867249 42.68936447 -88.63284302 43.30943878 -87.99835205 43.94830322 C-86.03512061 45.92831296 -84.08258259 47.9185031 -82.13012695 49.90913391 C-80.80008948 51.25421926 -79.46936817 52.59862879 -78.13793945 53.94233704 C-74.87735158 57.23598297 -71.62631508 60.5387973 -68.38012695 63.84663391 C-64.16468293 62.20949618 -61.38698877 59.084328 -58.2980957 55.91230774 C-57.39977524 55.00237816 -57.39977524 55.00237816 -56.48330688 54.07406616 C-55.18584129 52.7589693 -53.89059442 51.44168057 -52.59732056 50.12246132 C-50.55176368 48.03749627 -48.49877652 45.96013016 -46.44335938 43.8848877 C-40.60125527 37.98471336 -34.76898933 32.07495539 -28.95141602 26.15058899 C-25.39128399 22.52617481 -21.81919408 18.91392245 -18.23916626 15.30916405 C-16.8757029 13.93140369 -15.51693652 12.54897907 -14.16293335 11.16192055 C-12.27389331 9.2273922 -10.37010571 7.30863274 -8.4621582 5.39277649 C-7.9030777 4.81257751 -7.34399719 4.23237854 -6.76797485 3.63459778 C-2.91605274 -0.18789905 -2.91605274 -0.18789905 0 0 Z " fill="#212545" transform="translate(203.380126953125,112.15336608886719)"/>
</svg>
